<svg width="1716" height="983" viewBox="0 0 1716 983" fill="none" xmlns="http://www.w3.org/2000/svg">
<path d="M-258.291 782.971C-197.667 785.576 -144.905 806.276 -87.0411 816.326C67.8753 843.249 239.161 791.931 386.443 733.123C468.559 700.345 554.318 663.484 645.779 662.037C812.172 659.396 917.986 772.055 1076.9 795.641C1190.39 812.496 1314 781.487 1424.35 744.095C1534.74 706.726 1643.61 661.662 1762.39 647.257C1872.92 633.862 1986.47 649.211 2073.66 689.392C2161.87 730.025 2232.73 797.025 2343.93 799.643C2441.84 801.945 2532.68 751.73 2598.99 698.351C2673.84 638.115 2735.17 564.87 2733.71 490.313C2732.41 423.249 2681.07 364.962 2629.28 310.861C2323.16 -9.04947 1946.2 -300.551 1472.95 -508.602C1322.86 -574.558 1158.98 -632.917 974.808 -646.053C775.866 -660.278 566.088 -619.88 381.649 -550.836C197.184 -481.816 35.6642 -385.376 -111.731 -282.128C-404.938 -76.7366 -649.666 159.654 -831.591 413.195C-890.776 495.7 -944.577 584.434 -933.594 671.428C-925.293 737.227 -880.26 794.653 -826.497 845.981C-782.112 888.384 -703.669 980.324 -615.36 982.758C-537.456 984.906 -512.479 926.661 -480.701 887.731C-434.113 830.692 -359.696 778.636 -258.321 782.992L-258.291 782.971Z" fill="url(#paint0_linear_1_3)"/>
<defs>
<linearGradient id="paint0_linear_1_3" x1="1980.17" y1="1467.06" x2="-7.05696" y2="-191.323" gradientUnits="userSpaceOnUse">
<stop stop-color="#F0BB84"/>
<stop offset="1" stop-color="#E89A48"/>
</linearGradient>
</defs>
</svg>
