<svg width="1716" height="618" viewBox="0 0 1716 618" fill="none" xmlns="http://www.w3.org/2000/svg">
<g clip-path="url(#clip0_1_15)">
<path d="M-470.653 504.304C-412.113 509.673 -360.282 531.786 -304.044 544.067C-153.482 576.963 9.1046 536.616 148.203 488.032C225.757 460.954 306.625 430.188 394.685 433.201C554.889 438.675 662.246 550.336 816.501 580.266C926.663 601.65 1044.29 578.235 1148.82 548.144C1253.4 518.077 1356.14 480.657 1469.91 472.719C1575.77 465.342 1685.91 485.304 1771.86 527.499C1858.8 570.169 1930.29 636.956 2037.56 644.76C2132.01 651.63 2217.14 608.472 2278.48 561.146C2347.71 507.74 2403.29 441.379 2398.32 370.768C2393.85 307.254 2341.59 249.647 2289.1 195.979C1978.8 -121.369 1601.61 -415.231 1135.63 -634.751C987.851 -704.346 827.144 -767.414 649.051 -788.667C456.674 -811.658 256.475 -783.487 82.0639 -726.999C-92.3737 -670.535 -243.388 -587.029 -380.466 -496.404C-653.149 -316.125 -877.635 -104.193 -1040.78 126.975C-1093.86 202.201 -1141.45 283.577 -1126.7 366.412C-1115.55 429.065 -1069.4 485.555 -1015.14 536.694C-970.339 578.94 -890.349 669.686 -805.14 676.221C-729.972 681.986 -708.696 628.075 -679.94 592.764C-637.783 541.03 -568.571 495.343 -470.681 504.322L-470.653 504.304Z" fill="url(#paint0_linear_1_15)"/>
</g>
<defs>
<linearGradient id="paint0_linear_1_15" x1="1719.03" y1="1258.8" x2="-275.255" y2="-405.475" gradientUnits="userSpaceOnUse">
<stop stop-color="#F0BB84"/>
</linearGradient>
<clipPath id="clip0_1_15">
<rect width="1716" height="618" fill="white"/>
</clipPath>
</defs>
</svg>
