<svg width="220" height="854" viewBox="0 0 220 854" fill="none" xmlns="http://www.w3.org/2000/svg">
<path d="M67.4614 47.7704L95.7407 0H220V854H26.5757L37.8193 817.963L46.6779 790.306L55.1957 761.393L62.3507 733.317L68.1429 710.27L74.9572 680.518L80.0679 651.604L82.1122 634.424L84.8379 608.444V585.396L83.1343 561.092L80.0679 537.626L71.8907 502.008L60.3064 465.971L45.6557 426.162L32.7086 391.801L24.1907 369.173L15.3321 341.516L7.83643 313.441L2.04429 285.784L0 259.804V232.147L3.40714 203.234L8.51786 178.929L13.9693 160.073L28.2793 124.873L38.5007 102.664L49.0629 79.6173L67.4614 47.7704Z" fill="white"/>
</svg>
